<svg id="SvgjsSvg1006" width="863" height="484.00001525878906" xmlns="http://www.w3.org/2000/svg" version="1.1" xmlns:xlink="http://www.w3.org/1999/xlink" xmlns:svgjs="http://svgjs.com/svgjs"><defs id="SvgjsDefs1007"></defs><g id="SvgjsG1008" transform="translate(128,25)"><path id="SvgjsPath1009" d="M 0 0L 536 0L 536 90L 0 90Z" stroke="rgba(50,50,50,1)" stroke-width="2" fill-opacity="1" fill="#ffffff"></path><g id="SvgjsG1010"><text id="SvgjsText1011" font-family="微软雅黑" text-anchor="start" font-size="13px" width="516px" fill="#323232" font-weight="400" align="middle" anchor="start" family="微软雅黑" size="13px" weight="400" font-style="" opacity="1" y="35.05" transform="rotate(0)"></text></g></g><g id="SvgjsG1012" transform="translate(168,35)"><path id="SvgjsPath1013" d="M 0 0L 100 0L 100 70L 0 70Z" stroke="rgba(50,50,50,1)" stroke-width="2" fill-opacity="1" fill="#ffffff"></path><g id="SvgjsG1014"><text id="SvgjsText1015" font-family="微软雅黑" text-anchor="middle" font-size="13px" width="80px" fill="#323232" font-weight="400" align="middle" anchor="middle" family="微软雅黑" size="13px" weight="400" font-style="" opacity="1" y="25.05" transform="rotate(0)"><tspan id="SvgjsTspan1016" dy="16" x="50"><tspan id="SvgjsTspan1017" style="text-decoration:;">登录注册</tspan></tspan></text></g></g><g id="SvgjsG1018" transform="translate(346,35)"><path id="SvgjsPath1019" d="M 0 0L 100 0L 100 70L 0 70Z" stroke="rgba(50,50,50,1)" stroke-width="2" fill-opacity="1" fill="#ffffff"></path><g id="SvgjsG1020"><text id="SvgjsText1021" font-family="微软雅黑" text-anchor="middle" font-size="13px" width="80px" fill="#323232" font-weight="400" align="middle" anchor="middle" family="微软雅黑" size="13px" weight="400" font-style="" opacity="1" y="25.05" transform="rotate(0)"><tspan id="SvgjsTspan1022" dy="16" x="50"><tspan id="SvgjsTspan1023" style="text-decoration:;">题目列表</tspan></tspan></text></g></g><g id="SvgjsG1024" transform="translate(526,35)"><path id="SvgjsPath1025" d="M 0 0L 100 0L 100 70L 0 70Z" stroke="rgba(50,50,50,1)" stroke-width="2" fill-opacity="1" fill="#ffffff"></path><g id="SvgjsG1026"><text id="SvgjsText1027" font-family="微软雅黑" text-anchor="middle" font-size="13px" width="80px" fill="#323232" font-weight="400" align="middle" anchor="middle" family="微软雅黑" size="13px" weight="400" font-style="" opacity="1" y="25.05" transform="rotate(0)"><tspan id="SvgjsTspan1028" dy="16" x="50"><tspan id="SvgjsTspan1029" style="text-decoration:;">写题界面</tspan></tspan></text></g></g><g id="SvgjsG1030" transform="translate(25,50)"><path id="SvgjsPath1031" d="M 0 0L 120 0L 120 40L 0 40Z" stroke="none" fill="none"></path><g id="SvgjsG1032"><text id="SvgjsText1033" font-family="微软雅黑" text-anchor="middle" font-size="24px" width="120px" fill="#323232" font-weight="400" align="middle" anchor="middle" family="微软雅黑" size="24px" weight="400" font-style="" opacity="1" y="-0.5999999999999996" transform="rotate(0)"><tspan id="SvgjsTspan1034" dy="30" x="60"><tspan id="SvgjsTspan1035" style="text-decoration:;">前端</tspan></tspan></text></g></g><g id="SvgjsG1036" transform="translate(128,197)"><path id="SvgjsPath1037" d="M 0 0L 536 0L 536 90L 0 90Z" stroke="rgba(50,50,50,1)" stroke-width="2" fill-opacity="1" fill="#ffffff"></path><g id="SvgjsG1038"><text id="SvgjsText1039" font-family="微软雅黑" text-anchor="start" font-size="13px" width="516px" fill="#323232" font-weight="400" align="middle" anchor="start" family="微软雅黑" size="13px" weight="400" font-style="" opacity="1" y="35.05" transform="rotate(0)"></text></g></g><g id="SvgjsG1040" transform="translate(168,207)"><path id="SvgjsPath1041" d="M 0 0L 100 0L 100 70L 0 70Z" stroke="rgba(50,50,50,1)" stroke-width="2" fill-opacity="1" fill="#ffffff"></path><g id="SvgjsG1042"><text id="SvgjsText1043" font-family="微软雅黑" text-anchor="middle" font-size="13px" width="80px" fill="#323232" font-weight="400" align="middle" anchor="middle" family="微软雅黑" size="13px" weight="400" font-style="" opacity="1" y="25.05" transform="rotate(0)"><tspan id="SvgjsTspan1044" dy="16" x="50"><tspan id="SvgjsTspan1045" style="text-decoration:;">用户管理</tspan></tspan></text></g></g><g id="SvgjsG1046" transform="translate(346,207)"><path id="SvgjsPath1047" d="M 0 0L 100 0L 100 70L 0 70Z" stroke="rgba(50,50,50,1)" stroke-width="2" fill-opacity="1" fill="#ffffff"></path><g id="SvgjsG1048"><text id="SvgjsText1049" font-family="微软雅黑" text-anchor="middle" font-size="13px" width="80px" fill="#323232" font-weight="400" align="middle" anchor="middle" family="微软雅黑" size="13px" weight="400" font-style="" opacity="1" y="17.05" transform="rotate(0)"><tspan id="SvgjsTspan1050" dy="16" x="50"><tspan id="SvgjsTspan1051" style="text-decoration:;">数据库交互模</tspan></tspan><tspan id="SvgjsTspan1052" dy="16" x="50"><tspan id="SvgjsTspan1053" style="text-decoration:;">块</tspan></tspan></text></g></g><g id="SvgjsG1054" transform="translate(526,207)"><path id="SvgjsPath1055" d="M 0 0L 100 0L 100 70L 0 70Z" stroke="rgba(50,50,50,1)" stroke-width="2" fill-opacity="1" fill="#ffffff"></path><g id="SvgjsG1056"><text id="SvgjsText1057" font-family="微软雅黑" text-anchor="middle" font-size="13px" width="80px" fill="#323232" font-weight="400" align="middle" anchor="middle" family="微软雅黑" size="13px" weight="400" font-style="" opacity="1" y="25.05" transform="rotate(0)"><tspan id="SvgjsTspan1058" dy="16" x="50"><tspan id="SvgjsTspan1059" style="text-decoration:;">在线评测模块</tspan></tspan></text></g></g><g id="SvgjsG1060" transform="translate(25,222)"><path id="SvgjsPath1061" d="M 0 0L 120 0L 120 40L 0 40Z" stroke="none" fill="none"></path><g id="SvgjsG1062"><text id="SvgjsText1063" font-family="微软雅黑" text-anchor="middle" font-size="24px" width="120px" fill="#323232" font-weight="400" align="middle" anchor="middle" family="微软雅黑" size="24px" weight="400" font-style="" opacity="1" y="-0.5999999999999996" transform="rotate(0)"><tspan id="SvgjsTspan1064" dy="30" x="60"><tspan id="SvgjsTspan1065" style="text-decoration:;">后端</tspan></tspan></text></g></g><g id="SvgjsG1066" transform="translate(128,369)"><path id="SvgjsPath1067" d="M 0 0L 536 0L 536 90L 0 90Z" stroke="rgba(50,50,50,1)" stroke-width="2" fill-opacity="1" fill="#ffffff"></path><g id="SvgjsG1068"><text id="SvgjsText1069" font-family="微软雅黑" text-anchor="start" font-size="13px" width="516px" fill="#323232" font-weight="400" align="middle" anchor="start" family="微软雅黑" size="13px" weight="400" font-style="" opacity="1" y="35.05" transform="rotate(0)"></text></g></g><g id="SvgjsG1070" transform="translate(168,379)"><path id="SvgjsPath1071" d="M 0 0L 100 0L 100 70L 0 70Z" stroke="rgba(50,50,50,1)" stroke-width="2" fill-opacity="1" fill="#ffffff"></path><g id="SvgjsG1072"><text id="SvgjsText1073" font-family="微软雅黑" text-anchor="middle" font-size="13px" width="80px" fill="#323232" font-weight="400" align="middle" anchor="middle" family="微软雅黑" size="13px" weight="400" font-style="" opacity="1" y="25.05" transform="rotate(0)"><tspan id="SvgjsTspan1074" dy="16" x="50"><tspan id="SvgjsTspan1075" style="text-decoration:;">编译</tspan></tspan></text></g></g><g id="SvgjsG1076" transform="translate(346,379)"><path id="SvgjsPath1077" d="M 0 0L 100 0L 100 70L 0 70Z" stroke="rgba(50,50,50,1)" stroke-width="2" fill-opacity="1" fill="#ffffff"></path><g id="SvgjsG1078"><text id="SvgjsText1079" font-family="微软雅黑" text-anchor="middle" font-size="13px" width="80px" fill="#323232" font-weight="400" align="middle" anchor="middle" family="微软雅黑" size="13px" weight="400" font-style="" opacity="1" y="25.05" transform="rotate(0)"><tspan id="SvgjsTspan1080" dy="16" x="50"><tspan id="SvgjsTspan1081" style="text-decoration:;">运行</tspan></tspan></text></g></g><g id="SvgjsG1082" transform="translate(526,379)"><path id="SvgjsPath1083" d="M 0 0L 100 0L 100 70L 0 70Z" stroke="rgba(50,50,50,1)" stroke-width="2" fill-opacity="1" fill="#ffffff"></path><g id="SvgjsG1084"><text id="SvgjsText1085" font-family="微软雅黑" text-anchor="middle" font-size="13px" width="80px" fill="#323232" font-weight="400" align="middle" anchor="middle" family="微软雅黑" size="13px" weight="400" font-style="" opacity="1" y="25.05" transform="rotate(0)"><tspan id="SvgjsTspan1086" dy="16" x="50"><tspan id="SvgjsTspan1087" style="text-decoration:;">评测</tspan></tspan></text></g></g><g id="SvgjsG1088" transform="translate(25,394)"><path id="SvgjsPath1089" d="M 0 0L 120 0L 120 40L 0 40Z" stroke="none" fill="none"></path><g id="SvgjsG1090"><text id="SvgjsText1091" font-family="微软雅黑" text-anchor="middle" font-size="24px" width="120px" fill="#323232" font-weight="400" align="middle" anchor="middle" family="微软雅黑" size="24px" weight="400" font-style="" opacity="1" y="-15.6" transform="rotate(0)"><tspan id="SvgjsTspan1092" dy="30" x="60"><tspan id="SvgjsTspan1093" style="text-decoration:;">判题</tspan></tspan><tspan id="SvgjsTspan1094" dy="30" x="60"><tspan id="SvgjsTspan1095" style="text-decoration:;">系统</tspan></tspan></text></g></g><g id="SvgjsG1096" transform="translate(738,207)"><path id="SvgjsPath1097" d="M 15 0L 88.33333333333333 0C 103.18181818181819 0 103.18181818181819 70 88.33333333333333 70L 15 70C -5 70 -5 0 15 0ZM 88.33333333333333 0C 73.75 0 73.75 70 88.33333333333333 70C 73.75 70 73.75 0 88.33333333333333 0" stroke="rgba(50,50,50,1)" stroke-width="2" fill-opacity="1" fill="#ffffff"></path><g id="SvgjsG1098"><text id="SvgjsText1099" font-family="微软雅黑" text-anchor="middle" font-size="13px" width="80px" fill="#323232" font-weight="400" align="middle" anchor="middle" family="微软雅黑" size="13px" weight="400" font-style="" opacity="1" y="25.05" transform="rotate(0)"><tspan id="SvgjsTspan1100" dy="16" x="40"><tspan id="SvgjsTspan1101" style="text-decoration:;">数据库</tspan></tspan></text></g></g><g id="SvgjsG1102" transform="translate(386,123.33332824707031)"><path id="SvgjsPath1103" d="M 10 0L 20 10L 13.4 10L 13.4 58L 20 58L 10 68L 0 58L 6.6000000000000005 58L 6.6000000000000005 10L 0 10L 10 0Z" stroke="rgba(50,50,50,1)" stroke-width="2" fill-opacity="1" fill="#ffffff"></path><g id="SvgjsG1104"><text id="SvgjsText1105" font-family="微软雅黑" text-anchor="middle" font-size="13px" width="28px" fill="#323232" font-weight="400" align="middle" anchor="middle" family="微软雅黑" size="13px" weight="400" font-style="" opacity="1" y="24.05" transform="rotate(0)"></text></g></g><g id="SvgjsG1106" transform="matrix(-1.8369701987210297e-16,-1,1,-1.8369701987210297e-16,670,252)"><path id="SvgjsPath1107" d="M 10 0L 20 10L 13.4 10L 13.4 55L 20 55L 10 65L 0 55L 6.6000000000000005 55L 6.6000000000000005 10L 0 10L 10 0Z" stroke="rgba(50,50,50,1)" stroke-width="2" fill-opacity="1" fill="#ffffff"></path><g id="SvgjsG1108"><text id="SvgjsText1109" font-family="微软雅黑" text-anchor="middle" font-size="13px" width="28px" fill="#323232" font-weight="400" align="middle" anchor="middle" family="微软雅黑" size="13px" weight="400" font-style="" opacity="1" y="22.55" transform="rotate(0)"></text></g></g><g id="SvgjsG1110" transform="translate(386,295.3333282470703)"><path id="SvgjsPath1111" d="M 10 0L 20 10L 13.4 10L 13.4 58L 20 58L 10 68L 0 58L 6.6000000000000005 58L 6.6000000000000005 10L 0 10L 10 0Z" stroke="rgba(50,50,50,1)" stroke-width="2" fill-opacity="1" fill="#ffffff"></path><g id="SvgjsG1112"><text id="SvgjsText1113" font-family="微软雅黑" text-anchor="middle" font-size="13px" width="28px" fill="#323232" font-weight="400" align="middle" anchor="middle" family="微软雅黑" size="13px" weight="400" font-style="" opacity="1" y="24.05" transform="rotate(0)"></text></g></g></svg>